<svg xmlns="http://www.w3.org/2000/svg" viewBox="0 0 64 64" fill="none">
  <defs>
    <linearGradient id="fireGradient" x1="0%" y1="0%" x2="100%" y2="100%">
      <stop offset="0%" style="stop-color:#FF6B35;stop-opacity:1" />
      <stop offset="100%" style="stop-color:#FFA726;stop-opacity:1" />
    </linearGradient>
  </defs>
  
  <!-- Background circle with gradient -->
  <circle cx="32" cy="32" r="30" fill="url(#fireGradient)"/>
  
  <!-- Main flame shape (center) -->
  <path d="M32 14C28 14 24 18 24 24C24 28 26 32 28 36C29 39 30 42 30 44C30 46 28 48 26 48C24 48 22 46 22 44C22 42 21 39 20 36C19 32 18 28 18 24C18 18 22 14 26 14C28 14 30 14 32 14Z" fill="white" opacity="0.95"/>
  
  <!-- Secondary flame -->
  <path d="M36 16C40 16 42 20 42 26C42 29 40 32 38 35C37 37 36 39 36 41C36 42 37 43 38 43C39 43 40 42 40 41C40 39 41 37 42 35C43 32 44 29 44 26C44 20 42 16 38 16C37 16 36 16 36 16Z" fill="white" opacity="0.85"/>
  
  <!-- Flame core (brightest part) -->
  <path d="M32 18C34 18 36 20 36 23C36 25 34 28 32 31C30 28 28 25 28 23C28 20 30 18 32 18Z" fill="white"/>
  
  <!-- Community dots (representing members around the flame) -->
  <circle cx="18" cy="18" r="2.5" fill="white" opacity="0.8"/>
  <circle cx="46" cy="18" r="2.5" fill="white" opacity="0.8"/>
  <circle cx="18" cy="46" r="2.5" fill="white" opacity="0.8"/>
  <circle cx="46" cy="46" r="2.5" fill="white" opacity="0.8"/>
</svg>
